<svg width="348" height="117" viewBox="0 0 348 117" fill="none" xmlns="http://www.w3.org/2000/svg">
<path d="M58.4748 116.95C26.231 116.95 0 90.7186 0 58.4748C0 26.231 26.231 0 58.4748 0H288.814C321.058 0 347.289 26.231 347.289 58.4748C347.289 90.7186 321.058 116.95 288.814 116.95H58.4748Z" fill="#FDA800"/>
<path d="M58.476 113.369C28.2056 113.369 3.58203 88.745 3.58203 58.4746C3.58203 28.2042 28.2099 3.58057 58.476 3.58057H288.815C319.086 3.58057 343.709 28.2042 343.709 58.4746C343.709 88.745 319.086 113.369 288.815 113.369H58.476Z" fill="#FBC100"/>
<path d="M58.4746 106.207C32.1553 106.207 10.7422 84.794 10.7422 58.4746C10.7422 32.1553 32.1553 10.7422 58.4746 10.7422H288.814C315.133 10.7422 336.546 32.1553 336.546 58.4746C336.546 84.794 315.133 106.207 288.814 106.207H58.4746Z" fill="#FDA800"/>
<path d="M288.815 14.3232H58.4759C34.0921 14.3232 14.3242 34.0911 14.3242 58.4749C14.3242 82.8587 34.0921 102.627 58.4759 102.627H288.815C313.199 102.627 332.967 82.8587 332.967 58.4749C332.967 34.0911 313.199 14.3232 288.815 14.3232Z" fill="#FBE30D"/>
<path d="M19.2473 38.1938C19.2473 38.1938 19.2304 38.2233 19.222 38.2401C16.0873 44.3076 14.3242 51.1747 14.3242 58.4751C14.3242 82.8588 34.0921 102.627 58.4759 102.627H288.815C313.199 102.627 332.967 82.8588 332.967 58.4751C332.967 51.1578 331.179 44.2361 328.027 38.1602C328.027 38.1602 173.65 74.1068 19.2515 38.198L19.2473 38.1938Z" fill="#FED605"/>
<path d="M14.4378 61.6558C14.4378 61.6558 14.4588 61.9671 14.4715 62.1186C16.3355 84.7898 35.325 102.626 58.4717 102.626H288.811C312.113 102.626 331.2 84.5879 332.845 61.7063C332.845 61.7063 173.641 100.379 14.4336 61.66L14.4378 61.6558Z" fill="#FDCC03"/>
<path opacity="0.5" d="M282.726 98.6757C282.368 97.7416 290.666 97.5733 299.666 94.1314C308.667 90.6894 314.957 85.2741 315.315 86.2082C315.673 87.1423 309.958 94.0724 300.962 97.5144C291.966 100.956 283.084 99.6098 282.726 98.6757Z" fill="white"/>
<path d="M92.1851 48.6406L91.9667 55.082C91.9667 55.082 88.655 54.7908 86.799 54.7908C86.5079 54.7908 86.2531 54.8272 86.0712 54.8272C83.4873 54.9728 80.2848 56.0646 79.9937 60.9775V61.5234C79.9937 64.6895 81.8133 67.4553 85.1978 67.4553L85.4161 67.4189C85.4525 67.4189 85.4889 67.4189 85.5253 67.4189C89.0553 67.1278 91.4572 65.3446 91.4572 65.3446L91.6028 74.7338C91.6028 74.7338 89.019 76.6989 84.6883 76.8081H84.1424C78.6836 76.8081 71.4779 74.5882 71.1868 63.6705V62.9427C71.1868 51.6611 78.6472 48.4222 83.4509 48.0583C84.3971 47.9855 85.307 47.9491 86.1076 47.9491C90.0743 47.9491 92.1851 48.6406 92.1851 48.6406ZM102.296 66.873L110.811 65.8904L110.993 76.6261H92.8336L93.8162 47.7671L101.131 47.9491L102.296 66.873ZM128.439 47.6944L138.774 76.5898H127.965L127.165 73.3508L122.652 73.3145L121.888 76.5898H111.735L121.56 47.6944H128.439ZM124.945 63.4886L123.926 67.8192L125.891 67.8556L124.945 63.4886ZM141.101 47.9491H148.234L149.69 76.8081H139.209L141.101 47.9491ZM178.427 47.7671L179.882 76.6261H169.511L170.202 62.2148L167.036 68.3651L163.397 68.2923L160.121 62.2148L160.558 76.6261H150.441L151.969 47.7671H159.721L165.253 61.1595L171.003 47.7671H178.427ZM209.749 48.6406L209.531 55.082C209.531 55.082 206.219 54.7908 204.363 54.7908C204.072 54.7908 203.817 54.8272 203.635 54.8272C201.051 54.9728 197.849 56.0646 197.558 60.9775V61.5234C197.558 64.6895 199.377 67.4553 202.762 67.4553L202.98 67.4189C203.016 67.4189 203.053 67.4189 203.089 67.4189C206.619 67.1278 209.021 65.3446 209.021 65.3446L209.167 74.7338C209.167 74.7338 206.583 76.6989 202.252 76.8081H201.706C196.247 76.8081 189.042 74.5882 188.751 63.6705V62.9427C188.751 51.6611 196.211 48.4222 201.015 48.0583C201.961 47.9855 202.871 47.9491 203.671 47.9491C207.638 47.9491 209.749 48.6406 209.749 48.6406ZM222.225 47.9491H222.298C227.356 47.9491 233.907 51.2608 234.089 62.9063V63.3794C234.089 73.2053 229.54 76.8081 222.152 76.8081H221.934C215.638 76.7353 210.252 73.2417 210.252 63.4886C210.252 55.5551 213.272 48.0583 222.225 47.9491ZM222.298 55.737H222.225C220.842 55.737 219.423 57.0471 219.423 60.6864C219.423 64.7987 220.696 66.1816 222.225 66.218H222.298C223.972 66.218 225.136 64.5803 225.136 60.8319C225.136 57.3747 223.753 55.7734 222.298 55.737ZM236.197 48.2038C236.197 48.2038 238.271 47.9491 240.964 47.9491C243.439 47.9491 246.423 48.1675 248.788 48.9681C253.738 50.6421 256.394 55.6279 256.394 61.0503V61.2686C256.285 69.93 250.863 74.7338 245.004 75.9347C242.092 76.517 238.962 76.6261 236.924 76.6261C235.578 76.6261 234.705 76.5898 234.705 76.5898L236.197 48.2038ZM244.312 67.6009C246.204 67.3825 248.424 66.3272 248.497 60.8683V60.6136C248.497 55.5187 246.459 54.063 243.985 54.063H243.73L244.312 67.6009ZM258.335 47.9855L275.367 47.9491V53.8082H266.014L266.05 57.2291H271.363L271.327 62.3968H266.341L266.305 66.9458L275.221 66.036L275.257 76.5898L256.989 76.6261L258.335 47.9855Z" fill="#A83F14"/>
</svg>
