<svg width="348" height="117" viewBox="0 0 348 117" fill="none" xmlns="http://www.w3.org/2000/svg">
<path d="M58.4748 116.95C26.231 116.95 0 90.7186 0 58.4748C0 26.231 26.231 0 58.4748 0H288.814C321.058 0 347.289 26.231 347.289 58.4748C347.289 90.7186 321.058 116.95 288.814 116.95H58.4748Z" fill="#FDA800"/>
<path d="M58.476 113.369C28.2056 113.369 3.58203 88.745 3.58203 58.4746C3.58203 28.2042 28.2099 3.58057 58.476 3.58057H288.815C319.086 3.58057 343.709 28.2042 343.709 58.4746C343.709 88.745 319.086 113.369 288.815 113.369H58.476Z" fill="#FBC100"/>
<path d="M58.4746 106.207C32.1553 106.207 10.7422 84.794 10.7422 58.4746C10.7422 32.1553 32.1553 10.7422 58.4746 10.7422H288.814C315.133 10.7422 336.546 32.1553 336.546 58.4746C336.546 84.794 315.133 106.207 288.814 106.207H58.4746Z" fill="#FDA800"/>
<path d="M288.815 14.3232H58.4759C34.0921 14.3232 14.3242 34.0911 14.3242 58.4749C14.3242 82.8587 34.0921 102.627 58.4759 102.627H288.815C313.199 102.627 332.967 82.8587 332.967 58.4749C332.967 34.0911 313.199 14.3232 288.815 14.3232Z" fill="#FBE30D"/>
<path d="M19.2473 38.1938C19.2473 38.1938 19.2304 38.2233 19.222 38.2401C16.0873 44.3076 14.3242 51.1747 14.3242 58.4751C14.3242 82.8588 34.0921 102.627 58.4759 102.627H288.815C313.199 102.627 332.967 82.8588 332.967 58.4751C332.967 51.1578 331.179 44.2361 328.027 38.1602C328.027 38.1602 173.65 74.1068 19.2515 38.198L19.2473 38.1938Z" fill="#FED605"/>
<path d="M14.4378 61.6558C14.4378 61.6558 14.4588 61.9671 14.4715 62.1186C16.3355 84.7898 35.325 102.626 58.4717 102.626H288.811C312.113 102.626 331.2 84.5879 332.845 61.7063C332.845 61.7063 173.641 100.379 14.4336 61.66L14.4378 61.6558Z" fill="#FDCC03"/>
<path opacity="0.5" d="M282.726 98.6757C282.368 97.7416 290.666 97.5733 299.666 94.1314C308.667 90.6894 314.957 85.2741 315.315 86.2082C315.673 87.1423 309.958 94.0724 300.962 97.5144C291.966 100.956 283.084 99.6098 282.726 98.6757Z" fill="white"/>
<path d="M73.3626 48.0219C73.3626 48.0219 75.4006 47.9127 77.9117 47.9127C80.8594 47.9127 84.4623 48.0583 86.3183 48.6042C88.3926 49.2228 92.5777 51.0788 92.7597 55.8098V56.2829C92.7597 65.381 83.3341 65.4537 81.3689 65.4537L81.7328 76.8081H71.5066L73.3626 48.0219ZM81.005 59.7402H81.4053C82.9338 59.7402 85.6996 59.3399 85.6996 56.7196V56.6104C85.6632 54.6089 83.3341 53.9902 81.2961 53.9902H80.7866L81.005 59.7402ZM102.758 66.873L111.273 65.8904L111.455 76.6261H93.2956L94.2782 47.7671L101.593 47.9491L102.758 66.873ZM128.901 47.6944L139.236 76.5898H128.427L127.627 73.3508L123.114 73.3145L122.35 76.5898H112.197L122.022 47.6944H128.901ZM125.407 63.4886L124.388 67.8192L126.353 67.8556L125.407 63.4886ZM149.514 69.0566L150.387 76.8081L139.943 76.9173L140.598 68.5471L134.266 48.0947H141.216L145.11 61.0139L148.822 48.0947H155.955L149.514 69.0566ZM181.037 47.6944L191.372 76.5898H180.563L179.763 73.3508L175.25 73.3145L174.486 76.5898H164.333L174.158 47.6944H181.037ZM177.543 63.4886L176.524 67.8192L178.489 67.8556L177.543 63.4886ZM211.357 49.332L211.211 55.2275C211.211 55.2275 209.392 55.0092 206.844 55.0092C206.371 55.0092 205.861 55.0456 205.352 55.0456C201.786 55.1548 199.02 57.3747 199.02 61.4142V61.5598C199.093 65.7449 200.73 67.4553 204.406 67.6737L204.369 65.4901L201.749 65.4537L201.822 60.2861L210.556 60.1769L210.483 74.7701C210.483 74.7701 208.081 77.0265 203.46 77.0265C198.001 77.0265 190.286 74.3698 189.958 63.7797V62.9427C189.958 52.6801 196.509 48.9317 202.368 48.4222C203.278 48.3494 204.115 48.313 204.879 48.313C209.173 48.313 211.357 49.332 211.357 49.332ZM228.41 47.6944L238.746 76.5898H227.937L227.137 73.3508L222.624 73.3145L221.86 76.5898H211.706L221.532 47.6944H228.41ZM224.917 63.4886L223.898 67.8192L225.863 67.8556L224.917 63.4886ZM241.073 47.9491H248.206L249.662 76.8081H239.181L241.073 47.9491ZM259.729 47.9491L265.516 63.6341L266.389 47.7671H273.522L275.16 76.6261H264.897L260.494 64.2528L260.894 76.6261H250.34L252.196 47.7671L259.729 47.9491Z" fill="#A83F14"/>
</svg>
