<svg width="348" height="117" viewBox="0 0 348 117" fill="none" xmlns="http://www.w3.org/2000/svg">
<g clip-path="url(#clip0_603_93)">
<path d="M59.1945 116.95C26.9507 116.95 0.719727 90.7186 0.719727 58.4748C0.719727 26.231 26.9507 0 59.1945 0H289.534C321.778 0 348.009 26.231 348.009 58.4748C348.009 90.7186 321.778 116.95 289.534 116.95H59.1945Z" fill="#FDA800"/>
<path d="M59.1945 113.369C28.9242 113.369 4.30054 88.7452 4.30054 58.4748C4.30054 28.2044 28.9284 3.58081 59.1945 3.58081H289.534C319.804 3.58081 344.428 28.2044 344.428 58.4748C344.428 88.7452 319.804 113.369 289.534 113.369H59.1945Z" fill="#FBC100"/>
<path d="M59.1946 106.207C32.8753 106.207 11.4622 84.7941 11.4622 58.4748C11.4622 32.1554 32.8753 10.7423 59.1946 10.7423H289.534C315.853 10.7423 337.266 32.1554 337.266 58.4748C337.266 84.7941 315.853 106.207 289.534 106.207H59.1946Z" fill="#FDA800"/>
<path d="M289.534 14.3232H59.1944C34.8106 14.3232 15.0427 34.0911 15.0427 58.4749C15.0427 82.8587 34.8106 102.627 59.1944 102.627H289.534C313.918 102.627 333.685 82.8587 333.685 58.4749C333.685 34.0911 313.918 14.3232 289.534 14.3232Z" fill="#FBE30D"/>
<path d="M19.9658 38.1936C19.9658 38.1936 19.9489 38.223 19.9405 38.2399C16.8058 44.3074 15.0427 51.1744 15.0427 58.4748C15.0427 82.8586 34.8106 102.626 59.1944 102.626H289.534C313.918 102.626 333.685 82.8586 333.685 58.4748C333.685 51.1576 331.897 44.2359 328.746 38.1599C328.746 38.1599 174.368 74.1065 19.97 38.1978L19.9658 38.1936Z" fill="#FED605"/>
<path d="M15.1566 61.6558C15.1566 61.6558 15.1776 61.9671 15.1902 62.1186C17.0542 84.7898 36.0437 102.626 59.1904 102.626H289.53C312.832 102.626 331.918 84.5879 333.564 61.7063C333.564 61.7063 174.36 100.379 15.1523 61.66L15.1566 61.6558Z" fill="#FDCC03"/>
<path d="M62.4975 19.4229C62.8552 20.357 54.5576 20.5253 45.5572 23.9672C36.5569 27.4092 30.2664 32.8245 29.9087 31.8904C29.551 30.9563 35.2651 24.0261 44.2612 20.5842C53.2616 17.1423 62.1399 18.4888 62.4975 19.4229Z" fill="white"/>
<path opacity="0.5" d="M283.445 98.6755C283.088 97.7413 291.385 97.573 300.386 94.1311C309.386 90.6892 315.676 85.2738 316.034 86.208C316.392 87.1421 310.678 94.0722 301.682 97.5141C292.685 100.956 283.803 99.6096 283.445 98.6755Z" fill="white"/>
<path d="M68.847 18.7161C69.3099 19.9195 68.704 21.2702 67.5006 21.733C66.2972 22.1959 64.9465 21.59 64.4836 20.3866C64.0208 19.1831 64.6267 17.8325 65.8301 17.3696C67.0335 16.9068 68.3842 17.5127 68.847 18.7161Z" fill="white"/>
<path d="M119.011 38.6785C119.011 38.6785 122.115 38.5122 125.938 38.5122C130.427 38.5122 135.912 38.7339 138.739 39.5651C141.897 40.5071 148.27 43.3332 148.547 50.5369V51.2572C148.547 65.1105 134.195 65.2214 131.202 65.2214L131.756 82.5103H116.185L119.011 38.6785ZM130.648 56.5215H131.258C133.585 56.5215 137.796 55.9119 137.796 51.9222V51.756C137.741 48.7082 134.195 47.7662 131.091 47.7662H130.316L130.648 56.5215ZM163.77 67.3825L176.737 65.8863L177.014 82.2332H149.363L150.859 38.2906L161.997 38.5676L163.77 67.3825ZM203.577 38.1797L219.314 82.1778H202.857L201.638 77.246L194.766 77.1906L193.603 82.1778H178.142L193.104 38.1797H203.577ZM198.257 62.229L196.706 68.8232L199.698 68.8786L198.257 62.229ZM234.964 70.7073L236.294 82.5103L220.391 82.6765L221.388 69.9315L211.746 38.7893H222.33L228.259 58.461L233.911 38.7893H244.772L234.964 70.7073Z" fill="#A83F14"/>
</g>
<defs>
<clipPath id="clip0_603_93">
<rect width="347" height="117" fill="white" transform="translate(0.859863)"/>
</clipPath>
</defs>
</svg>
